<?xml version="1.0" encoding="UTF-8" standalone="no"?><!DOCTYPE svg PUBLIC "-//W3C//DTD SVG 1.1//EN" "http://www.w3.org/Graphics/SVG/1.1/DTD/svg11.dtd"><svg width="100%" height="100%" viewBox="0 0 274 266" version="1.1" xmlns="http://www.w3.org/2000/svg" xmlns:xlink="http://www.w3.org/1999/xlink" xml:space="preserve" xmlns:serif="http://www.serif.com/" style="fill-rule:evenodd;clip-rule:evenodd;stroke-linejoin:round;stroke-miterlimit:2;"><g><g><path d="M10.627,234.967c1.988,-0 3.791,0.465 5.41,1.395c1.618,0.93 2.892,2.211 3.822,3.842c0.93,1.631 1.396,3.44 1.396,5.428l-0,8.984c-0,0.407 -0.141,0.751 -0.421,1.032c-0.28,0.28 -0.637,0.42 -1.07,0.42c-0.434,0 -0.79,-0.134 -1.071,-0.401c-0.28,-0.268 -0.42,-0.618 -0.42,-1.051l-0,-2.294c-0.892,1.223 -2.026,2.185 -3.402,2.886c-1.377,0.701 -2.893,1.051 -4.55,1.051c-1.936,0 -3.689,-0.465 -5.256,-1.395c-1.567,-0.93 -2.803,-2.204 -3.708,-3.823c-0.905,-1.618 -1.357,-3.421 -1.357,-5.409c0,-1.988 0.465,-3.797 1.395,-5.428c0.931,-1.631 2.205,-2.912 3.823,-3.842c1.618,-0.93 3.421,-1.395 5.409,-1.395Zm0,18.616c1.453,0 2.765,-0.344 3.938,-1.032c1.172,-0.688 2.096,-1.637 2.771,-2.848c0.676,-1.21 1.013,-2.567 1.013,-4.071c0,-1.504 -0.337,-2.861 -1.013,-4.071c-0.675,-1.211 -1.599,-2.166 -2.771,-2.867c-1.173,-0.701 -2.485,-1.052 -3.938,-1.052c-1.452,0 -2.771,0.351 -3.956,1.052c-1.185,0.701 -2.116,1.656 -2.791,2.867c-0.675,1.21 -1.013,2.567 -1.013,4.071c0,1.504 0.338,2.861 1.013,4.071c0.675,1.211 1.606,2.16 2.791,2.848c1.185,0.688 2.504,1.032 3.956,1.032Z" style="fill:#e20000;fill-rule:nonzero;"/><path d="M36.89,234.928c1.809,0 3.434,0.383 4.874,1.147c1.44,0.765 2.567,1.88 3.383,3.345c0.815,1.465 1.223,3.218 1.223,5.256l0,9.94c0,0.407 -0.14,0.751 -0.42,1.032c-0.281,0.28 -0.625,0.42 -1.033,0.42c-0.433,0 -0.79,-0.14 -1.07,-0.42c-0.28,-0.281 -0.42,-0.625 -0.42,-1.032l-0,-9.94c-0,-2.268 -0.631,-3.994 -1.893,-5.179c-1.261,-1.186 -2.911,-1.778 -4.95,-1.778c-1.249,-0 -2.377,0.242 -3.383,0.726c-1.007,0.484 -1.803,1.153 -2.39,2.007c-0.586,0.854 -0.879,1.803 -0.879,2.848l0,11.316c0,0.433 -0.134,0.783 -0.401,1.051c-0.268,0.267 -0.618,0.401 -1.051,0.401c-0.434,0 -0.79,-0.134 -1.071,-0.401c-0.28,-0.268 -0.42,-0.618 -0.42,-1.051l-0,-17.967c-0,-0.434 0.14,-0.79 0.42,-1.071c0.281,-0.28 0.637,-0.42 1.071,-0.42c0.433,-0 0.783,0.14 1.051,0.42c0.267,0.281 0.401,0.637 0.401,1.071l0,1.299c0.841,-0.943 1.861,-1.682 3.058,-2.217c1.198,-0.535 2.498,-0.803 3.9,-0.803Z" style="fill-rule:nonzero;"/><path d="M62.388,234.967c2.038,-0 3.861,0.452 5.466,1.357c1.606,0.904 2.867,2.166 3.785,3.784c0.917,1.618 1.376,3.46 1.376,5.524l-0,7.798c-0,2.039 -0.453,3.887 -1.357,5.544c-0.905,1.656 -2.16,2.962 -3.766,3.918c-1.605,0.956 -3.415,1.433 -5.428,1.433c-1.962,0 -3.708,-0.369 -5.237,-1.108c-1.529,-0.739 -2.816,-1.771 -3.861,-3.097c-0.23,-0.255 -0.344,-0.548 -0.344,-0.879c-0,-0.382 0.178,-0.713 0.535,-0.994c0.255,-0.178 0.535,-0.267 0.841,-0.267c0.229,-0 0.459,0.057 0.688,0.172c0.229,0.114 0.408,0.261 0.535,0.439c0.765,0.969 1.733,1.72 2.906,2.256c1.172,0.535 2.497,0.802 3.975,0.802c1.427,0 2.721,-0.35 3.88,-1.051c1.16,-0.701 2.071,-1.682 2.734,-2.943c0.662,-1.262 0.994,-2.708 0.994,-4.339l-0,-1.72c-0.765,1.452 -1.848,2.593 -3.25,3.421c-1.402,0.828 -2.994,1.242 -4.778,1.242c-1.988,0 -3.766,-0.452 -5.333,-1.357c-1.567,-0.904 -2.791,-2.166 -3.67,-3.784c-0.879,-1.619 -1.319,-3.447 -1.319,-5.486c0,-2.064 0.459,-3.906 1.376,-5.524c0.918,-1.618 2.186,-2.88 3.804,-3.784c1.618,-0.905 3.434,-1.357 5.448,-1.357Zm-0,18.616c1.478,0 2.803,-0.337 3.975,-1.013c1.173,-0.675 2.09,-1.618 2.753,-2.828c0.662,-1.211 0.994,-2.581 0.994,-4.11c-0,-1.529 -0.332,-2.899 -0.994,-4.109c-0.663,-1.211 -1.58,-2.16 -2.753,-2.848c-1.172,-0.688 -2.497,-1.033 -3.975,-1.033c-1.504,0 -2.842,0.345 -4.014,1.033c-1.173,0.688 -2.09,1.637 -2.753,2.848c-0.662,1.21 -0.994,2.58 -0.994,4.109c0,1.529 0.332,2.899 0.994,4.11c0.663,1.21 1.58,2.153 2.753,2.828c1.172,0.676 2.51,1.013 4.014,1.013Z" style="fill-rule:nonzero;"/><path d="M87.656,234.967c1.886,-0 3.555,0.439 5.008,1.318c1.452,0.88 2.58,2.097 3.383,3.651c0.803,1.555 1.204,3.326 1.204,5.314c0,0.408 -0.127,0.732 -0.382,0.975c-0.255,0.242 -0.586,0.363 -0.994,0.363l-15.444,-0c0.204,2.09 1.019,3.784 2.447,5.084c1.427,1.3 3.211,1.95 5.351,1.95c0.918,-0 1.842,-0.16 2.772,-0.478c0.93,-0.319 1.676,-0.72 2.236,-1.204c0.332,-0.255 0.676,-0.383 1.032,-0.383c0.281,0 0.561,0.102 0.841,0.306c0.332,0.306 0.497,0.65 0.497,1.032c0,0.332 -0.14,0.625 -0.42,0.88c-0.841,0.713 -1.912,1.306 -3.211,1.777c-1.3,0.472 -2.549,0.707 -3.747,0.707c-2.038,0 -3.861,-0.452 -5.466,-1.357c-1.606,-0.904 -2.861,-2.166 -3.766,-3.784c-0.904,-1.619 -1.357,-3.447 -1.357,-5.486c0,-2.064 0.427,-3.906 1.281,-5.524c0.854,-1.618 2.039,-2.88 3.555,-3.784c1.517,-0.905 3.243,-1.357 5.18,-1.357Zm0,2.637c-1.937,0 -3.542,0.599 -4.817,1.797c-1.274,1.198 -2.051,2.778 -2.332,4.74l13.992,0c-0.204,-1.962 -0.918,-3.542 -2.141,-4.74c-1.223,-1.198 -2.791,-1.797 -4.702,-1.797Z" style="fill-rule:nonzero;"/><path d="M106.732,256.068c-1.555,0 -2.823,-0.618 -3.804,-1.854c-0.981,-1.236 -1.472,-2.822 -1.472,-4.759l0,-21.79c0,-0.433 0.14,-0.784 0.421,-1.051c0.28,-0.268 0.624,-0.402 1.032,-0.402c0.433,0 0.784,0.134 1.051,0.402c0.268,0.267 0.402,0.618 0.402,1.051l-0,21.79c-0,1.096 0.223,1.988 0.668,2.676c0.446,0.688 1.014,1.032 1.702,1.032l0.955,-0c0.383,-0 0.688,0.134 0.918,0.401c0.229,0.268 0.344,0.618 0.344,1.052c-0,0.433 -0.159,0.783 -0.478,1.051c-0.319,0.267 -0.733,0.401 -1.242,0.401l-0.497,0Z" style="fill-rule:nonzero;"/><path d="M121.832,256.259c-2.014,0 -3.83,-0.458 -5.448,-1.376c-1.618,-0.917 -2.886,-2.185 -3.804,-3.804c-0.917,-1.618 -1.376,-3.434 -1.376,-5.447c0,-2.013 0.459,-3.835 1.376,-5.467c0.918,-1.631 2.186,-2.905 3.804,-3.822c1.618,-0.918 3.434,-1.376 5.448,-1.376c2.013,-0 3.822,0.458 5.428,1.376c1.605,0.917 2.873,2.191 3.804,3.822c0.93,1.632 1.395,3.454 1.395,5.467c-0,2.013 -0.459,3.829 -1.376,5.447c-0.918,1.619 -2.186,2.887 -3.804,3.804c-1.618,0.918 -3.434,1.376 -5.447,1.376Zm-0,-2.676c1.478,0 2.803,-0.344 3.975,-1.032c1.173,-0.688 2.09,-1.637 2.753,-2.848c0.662,-1.21 0.994,-2.567 0.994,-4.071c-0,-1.529 -0.332,-2.899 -0.994,-4.109c-0.663,-1.211 -1.58,-2.16 -2.753,-2.848c-1.172,-0.688 -2.497,-1.033 -3.975,-1.033c-1.453,0 -2.772,0.345 -3.957,1.033c-1.185,0.688 -2.115,1.637 -2.791,2.848c-0.675,1.21 -1.013,2.58 -1.013,4.109c0,1.504 0.338,2.861 1.013,4.071c0.676,1.211 1.606,2.16 2.791,2.848c1.185,0.688 2.504,1.032 3.957,1.032Z" style="fill-rule:nonzero;"/><path d="M160.021,234.967c1.988,-0 3.791,0.465 5.409,1.395c1.618,0.93 2.893,2.211 3.823,3.842c0.93,1.631 1.395,3.44 1.395,5.428c0,1.988 -0.452,3.791 -1.357,5.409c-0.905,1.619 -2.141,2.893 -3.708,3.823c-1.567,0.93 -3.319,1.395 -5.256,1.395c-1.657,0 -3.173,-0.35 -4.549,-1.051c-1.376,-0.701 -2.511,-1.663 -3.403,-2.886l0,11.201c0,0.433 -0.14,0.79 -0.42,1.07c-0.28,0.28 -0.637,0.42 -1.07,0.42c-0.434,0 -0.784,-0.14 -1.052,-0.42c-0.267,-0.28 -0.401,-0.637 -0.401,-1.07l-0,-8.563c-0.026,-0.077 -0.038,-0.192 -0.038,-0.344l-0,-8.984c-0,-1.988 0.465,-3.797 1.395,-5.428c0.93,-1.631 2.204,-2.912 3.823,-3.842c1.618,-0.93 3.421,-1.395 5.409,-1.395Zm-0,18.616c1.453,0 2.771,-0.344 3.957,-1.032c1.185,-0.688 2.115,-1.637 2.79,-2.848c0.676,-1.21 1.013,-2.567 1.013,-4.071c0,-1.504 -0.337,-2.861 -1.013,-4.071c-0.675,-1.211 -1.605,-2.166 -2.79,-2.867c-1.186,-0.701 -2.504,-1.052 -3.957,-1.052c-1.453,0 -2.765,0.351 -3.937,1.052c-1.173,0.701 -2.097,1.656 -2.772,2.867c-0.675,1.21 -1.013,2.567 -1.013,4.071c-0,0.433 0.013,0.752 0.038,0.956c0.026,0.051 0.038,0.114 0.038,0.191c0.255,1.988 1.09,3.619 2.504,4.893c1.415,1.274 3.129,1.911 5.142,1.911Z" style="fill:#e20000;fill-rule:nonzero;"/><path d="M178.523,256.068c-0.433,0 -0.79,-0.14 -1.07,-0.42c-0.281,-0.281 -0.421,-0.637 -0.421,-1.071l0,-17.928c0,-0.434 0.14,-0.79 0.421,-1.071c0.28,-0.28 0.637,-0.42 1.07,-0.42c0.433,-0 0.784,0.14 1.051,0.42c0.268,0.281 0.402,0.637 0.402,1.071l-0,17.928c-0,0.434 -0.134,0.79 -0.402,1.071c-0.267,0.28 -0.618,0.42 -1.051,0.42Zm-0.038,-24.886c-0.586,-0 -1.077,-0.204 -1.472,-0.612c-0.395,-0.407 -0.592,-0.904 -0.592,-1.491c-0,-0.611 0.204,-1.108 0.611,-1.49c0.408,-0.383 0.905,-0.574 1.491,-0.574c0.561,0 1.045,0.191 1.453,0.574c0.408,0.382 0.611,0.879 0.611,1.49c0,0.587 -0.203,1.084 -0.611,1.491c-0.408,0.408 -0.905,0.612 -1.491,0.612Z" style="fill-rule:nonzero;"/><path d="M196.796,256.259c-1.988,0 -3.772,-0.465 -5.352,-1.395c-1.58,-0.93 -2.822,-2.204 -3.727,-3.823c-0.905,-1.618 -1.357,-3.421 -1.357,-5.409c-0,-2.039 0.433,-3.867 1.3,-5.486c0.866,-1.618 2.064,-2.886 3.593,-3.803c1.529,-0.918 3.249,-1.376 5.161,-1.376c3.185,-0 5.772,1.223 7.76,3.669c0.204,0.23 0.306,0.497 0.306,0.803c-0,0.408 -0.217,0.765 -0.65,1.071c-0.229,0.152 -0.472,0.229 -0.726,0.229c-0.383,-0 -0.752,-0.191 -1.109,-0.574c-0.765,-0.841 -1.606,-1.471 -2.523,-1.892c-0.918,-0.42 -1.937,-0.631 -3.058,-0.631c-1.402,0 -2.651,0.338 -3.747,1.013c-1.095,0.676 -1.943,1.625 -2.542,2.848c-0.599,1.224 -0.898,2.6 -0.898,4.129c-0,1.504 0.318,2.861 0.956,4.071c0.637,1.211 1.529,2.16 2.676,2.848c1.146,0.688 2.459,1.032 3.937,1.032c2.039,0 3.683,-0.548 4.931,-1.643c0.332,-0.281 0.676,-0.421 1.033,-0.421c0.305,0 0.586,0.102 0.841,0.306c0.356,0.306 0.535,0.65 0.535,1.032c-0,0.331 -0.128,0.612 -0.383,0.841c-1.835,1.708 -4.154,2.561 -6.957,2.561Z" style="fill-rule:nonzero;"/><path d="M219.58,256.259c-1.988,0 -3.772,-0.465 -5.352,-1.395c-1.58,-0.93 -2.823,-2.204 -3.727,-3.823c-0.905,-1.618 -1.357,-3.421 -1.357,-5.409c-0,-2.039 0.433,-3.867 1.299,-5.486c0.867,-1.618 2.065,-2.886 3.594,-3.803c1.529,-0.918 3.249,-1.376 5.16,-1.376c3.186,-0 5.773,1.223 7.761,3.669c0.203,0.23 0.305,0.497 0.305,0.803c0,0.408 -0.216,0.765 -0.649,1.071c-0.23,0.152 -0.472,0.229 -0.727,0.229c-0.382,-0 -0.752,-0.191 -1.108,-0.574c-0.765,-0.841 -1.606,-1.471 -2.523,-1.892c-0.918,-0.42 -1.937,-0.631 -3.059,-0.631c-1.401,0 -2.65,0.338 -3.746,1.013c-1.096,0.676 -1.943,1.625 -2.542,2.848c-0.599,1.224 -0.898,2.6 -0.898,4.129c-0,1.504 0.318,2.861 0.955,4.071c0.637,1.211 1.529,2.16 2.676,2.848c1.147,0.688 2.46,1.032 3.938,1.032c2.038,0 3.682,-0.548 4.931,-1.643c0.331,-0.281 0.675,-0.421 1.032,-0.421c0.306,0 0.586,0.102 0.841,0.306c0.357,0.306 0.535,0.65 0.535,1.032c0,0.331 -0.127,0.612 -0.382,0.841c-1.835,1.708 -4.154,2.561 -6.957,2.561Z" style="fill-rule:nonzero;"/><path d="M242.554,256.259c-2.013,0 -3.829,-0.458 -5.447,-1.376c-1.618,-0.917 -2.886,-2.185 -3.804,-3.804c-0.917,-1.618 -1.376,-3.434 -1.376,-5.447c0,-2.013 0.459,-3.835 1.376,-5.467c0.918,-1.631 2.186,-2.905 3.804,-3.822c1.618,-0.918 3.434,-1.376 5.447,-1.376c2.014,-0 3.823,0.458 5.429,1.376c1.605,0.917 2.873,2.191 3.803,3.822c0.931,1.632 1.396,3.454 1.396,5.467c-0,2.013 -0.459,3.829 -1.376,5.447c-0.918,1.619 -2.186,2.887 -3.804,3.804c-1.618,0.918 -3.434,1.376 -5.448,1.376Zm0,-2.676c1.479,0 2.804,-0.344 3.976,-1.032c1.172,-0.688 2.09,-1.637 2.753,-2.848c0.662,-1.21 0.993,-2.567 0.993,-4.071c0,-1.529 -0.331,-2.899 -0.993,-4.109c-0.663,-1.211 -1.581,-2.16 -2.753,-2.848c-1.172,-0.688 -2.497,-1.033 -3.976,-1.033c-1.452,0 -2.771,0.345 -3.956,1.033c-1.185,0.688 -2.115,1.637 -2.791,2.848c-0.675,1.21 -1.013,2.58 -1.013,4.109c0,1.504 0.338,2.861 1.013,4.071c0.676,1.211 1.606,2.16 2.791,2.848c1.185,0.688 2.504,1.032 3.956,1.032Z" style="fill-rule:nonzero;"/><path d="M263.427,256.068c-1.555,0 -2.823,-0.618 -3.804,-1.854c-0.981,-1.236 -1.472,-2.822 -1.472,-4.759l0,-21.79c0,-0.433 0.141,-0.784 0.421,-1.051c0.28,-0.268 0.624,-0.402 1.032,-0.402c0.433,0 0.784,0.134 1.051,0.402c0.268,0.267 0.402,0.618 0.402,1.051l-0,21.79c-0,1.096 0.223,1.988 0.669,2.676c0.446,0.688 1.013,1.032 1.701,1.032l0.955,-0c0.383,-0 0.689,0.134 0.918,0.401c0.229,0.268 0.344,0.618 0.344,1.052c0,0.433 -0.159,0.783 -0.478,1.051c-0.318,0.267 -0.733,0.401 -1.242,0.401l-0.497,0Z" style="fill-rule:nonzero;"/><path d="M271.799,256.068c-0.434,0 -0.79,-0.14 -1.071,-0.42c-0.28,-0.281 -0.42,-0.637 -0.42,-1.071l-0,-17.928c-0,-0.434 0.14,-0.79 0.42,-1.071c0.281,-0.28 0.637,-0.42 1.071,-0.42c0.433,-0 0.783,0.14 1.051,0.42c0.268,0.281 0.401,0.637 0.401,1.071l0,17.928c0,0.434 -0.133,0.79 -0.401,1.071c-0.268,0.28 -0.618,0.42 -1.051,0.42Zm-0.039,-24.886c-0.586,-0 -1.076,-0.204 -1.471,-0.612c-0.395,-0.407 -0.593,-0.904 -0.593,-1.491c0,-0.611 0.204,-1.108 0.612,-1.49c0.408,-0.383 0.904,-0.574 1.491,-0.574c0.56,0 1.045,0.191 1.452,0.574c0.408,0.382 0.612,0.879 0.612,1.49c-0,0.587 -0.204,1.084 -0.612,1.491c-0.407,0.408 -0.904,0.612 -1.491,0.612Z" style="fill-rule:nonzero;"/></g><rect x="36.04" y="0" width="214.045" height="214.045" style="fill:none;"/><g><path d="M103.743,74.258c5.061,0 9.651,1.184 13.772,3.553c4.12,2.368 7.364,5.629 9.733,9.781c2.368,4.153 3.552,8.76 3.552,13.821l0,22.873c0,1.038 -0.357,1.914 -1.07,2.628c-0.714,0.713 -1.623,1.07 -2.726,1.07c-1.103,0 -2.011,-0.34 -2.725,-1.022c-0.714,-0.681 -1.07,-1.573 -1.07,-2.676l-0,-5.84c-2.272,3.115 -5.159,5.564 -8.663,7.348c-3.504,1.785 -7.364,2.677 -11.582,2.677c-4.931,-0 -9.392,-1.184 -13.383,-3.553c-3.99,-2.368 -7.137,-5.612 -9.441,-9.733c-2.303,-4.12 -3.455,-8.711 -3.455,-13.772c-0,-5.061 1.184,-9.668 3.552,-13.821c2.369,-4.152 5.613,-7.413 9.733,-9.781c4.121,-2.369 8.711,-3.553 13.773,-3.553Zm-0,47.4c3.698,-0 7.04,-0.876 10.025,-2.628c2.984,-1.752 5.336,-4.169 7.056,-7.251c1.719,-3.082 2.579,-6.537 2.579,-10.366c0,-3.828 -0.86,-7.283 -2.579,-10.365c-1.72,-3.082 -4.072,-5.516 -7.056,-7.3c-2.985,-1.784 -6.327,-2.677 -10.025,-2.677c-3.699,0 -7.057,0.893 -10.074,2.677c-3.017,1.784 -5.386,4.218 -7.105,7.3c-1.72,3.082 -2.579,6.537 -2.579,10.365c-0,3.829 0.859,7.284 2.579,10.366c1.719,3.082 4.088,5.499 7.105,7.251c3.017,1.752 6.375,2.628 10.074,2.628Z" style="fill:#e20000;fill-rule:nonzero;"/><path d="M170.12,74.258c5.062,0 9.652,1.184 13.773,3.553c4.12,2.368 7.364,5.629 9.732,9.781c2.369,4.153 3.553,8.76 3.553,13.821c0,5.061 -1.152,9.652 -3.455,13.772c-2.304,4.121 -5.451,7.365 -9.441,9.733c-3.991,2.369 -8.452,3.553 -13.383,3.553c-4.218,-0 -8.078,-0.892 -11.582,-2.677c-3.504,-1.784 -6.392,-4.233 -8.663,-7.348l0,28.518c0,1.103 -0.356,2.011 -1.07,2.725c-0.714,0.714 -1.622,1.07 -2.725,1.07c-1.103,0 -1.996,-0.356 -2.677,-1.07c-0.681,-0.714 -1.022,-1.622 -1.022,-2.725l0,-21.802c-0.065,-0.195 -0.097,-0.487 -0.097,-0.876l-0,-22.873c-0,-5.061 1.184,-9.668 3.552,-13.821c2.369,-4.152 5.613,-7.413 9.733,-9.781c4.121,-2.369 8.711,-3.553 13.772,-3.553Zm0,47.4c3.699,-0 7.057,-0.876 10.074,-2.628c3.017,-1.752 5.386,-4.169 7.105,-7.251c1.72,-3.082 2.579,-6.537 2.579,-10.366c0,-3.828 -0.859,-7.283 -2.579,-10.365c-1.719,-3.082 -4.088,-5.516 -7.105,-7.3c-3.017,-1.784 -6.375,-2.677 -10.074,-2.677c-3.698,0 -7.04,0.893 -10.025,2.677c-2.984,1.784 -5.336,4.218 -7.056,7.3c-1.719,3.082 -2.579,6.537 -2.579,10.365c-0,1.103 0.032,1.914 0.097,2.434c0.065,0.129 0.097,0.292 0.097,0.486c0.649,5.061 2.774,9.214 6.376,12.458c3.601,3.245 7.964,4.867 13.09,4.867Z" style="fill:#e20000;fill-rule:nonzero;"/><path d="M122.56,212.728c-0.736,-0.069 -1.434,-0.357 -2.005,-0.827c-4.949,-4.078 -29.377,-24.21 -34.536,-28.462c-0.616,-0.508 -1.019,-1.229 -1.128,-2.02c-0.916,-6.647 -5.308,-38.509 -7.263,-52.697c-0.075,-0.547 0.257,-1.067 0.784,-1.23c0.527,-0.162 1.095,0.082 1.34,0.576c4.527,9.135 12.64,25.503 14.258,28.767c0.189,0.38 0.448,0.721 0.764,1.004c1.778,1.589 8.088,7.232 11.818,10.569c0.661,0.591 1.564,0.833 2.432,0.652c0.868,-0.181 1.598,-0.764 1.967,-1.57c0.878,-1.915 1.916,-4.18 2.539,-5.539c0.352,-0.769 1.018,-1.349 1.829,-1.592c3.856,-1.158 15.404,-4.626 19.825,-5.953c1.14,-0.342 2.355,-0.342 3.495,-0c5.136,1.542 19.825,5.953 19.825,5.953c0.81,0.243 1.477,0.823 1.829,1.592c0.623,1.359 1.661,3.624 2.538,5.539c0.37,0.806 1.1,1.389 1.968,1.57c0.868,0.181 1.771,-0.061 2.432,-0.652c3.73,-3.337 10.04,-8.98 11.818,-10.569c0.316,-0.283 0.575,-0.624 0.764,-1.004c1.618,-3.264 9.731,-19.632 14.258,-28.767c0.245,-0.494 0.812,-0.738 1.34,-0.576c0.527,0.163 0.859,0.683 0.784,1.23c-1.955,14.188 -6.347,46.05 -7.263,52.697c-0.109,0.791 -0.512,1.512 -1.128,2.02c-5.159,4.252 -29.588,24.384 -34.536,28.462c-0.571,0.47 -1.269,0.758 -2.005,0.827c-3.57,0.333 -14.372,1.342 -14.372,1.342l-14.371,-1.342Zm0.927,-38.936c1.023,0.185 2.079,0.282 3.157,0.282c3.839,0 7.392,-1.23 10.287,-3.318c2.896,2.088 6.449,3.318 10.288,3.318c1.078,0 2.134,-0.097 3.157,-0.282c-2.897,2.765 -7.839,4.587 -13.445,4.587c-5.605,0 -10.547,-1.822 -13.444,-4.587Z"/><circle cx="103.743" cy="101.365" r="6.825"/><circle cx="170.12" cy="101.365" r="6.825"/><path d="M157.189,33.818c-0,0 1.409,-19.696 22.457,-14.719c21.047,4.978 27.33,16.314 20.93,34.019c-6.399,17.705 -7.172,23.964 -0.356,33.065c-0,0 -16.314,-3.969 -10.696,-28.074c5.617,-24.105 -7.337,-19.519 -12.908,-18.63c-5.157,0.824 -18.414,4.392 -19.427,-5.661Z"/><path d="M155.569,21.78c-0,-0 -2.831,-20.905 -30.278,-21.759c-27.447,-0.853 -67.061,23.9 -46.931,75.673c-0,0 4.059,-4.49 1.258,-32.803c-1.513,-15.29 33.648,-1.937 43.532,0.41c9.884,2.346 22.235,-0.385 26.88,-4.73c4.369,-4.087 6.094,-7.181 5.539,-16.791Z"/></g></g></svg>